<?xml version="1.0" standalone="no"?>
<!DOCTYPE svg PUBLIC "-//W3C//DTD SVG 20010904//EN"
 "http://www.w3.org/TR/2001/REC-SVG-20010904/DTD/svg10.dtd">
<svg version="1.0" xmlns="http://www.w3.org/2000/svg"
 width="980.000000pt" height="980.000000pt" viewBox="0 0 980.000000 980.000000"
 preserveAspectRatio="xMidYMid meet">

<g transform="translate(0.000000,980.000000) scale(0.100000,-0.100000)"
fill="#000000" stroke="none">
<path d="M628 9790 c-73 -13 -145 -38 -233 -83 -61 -32 -101 -62 -170 -132
-100 -99 -154 -189 -197 -325 l-23 -75 0 -4275 0 -4275 23 -75 c43 -136 97
-226 197 -325 99 -100 189 -154 325 -197 l75 -23 4275 0 4275 0 75 23 c136 43
226 97 325 197 100 99 154 189 197 325 l23 75 0 4275 0 4275 -23 75 c-43 136
-97 226 -197 325 -97 98 -183 151 -320 197 l-70 23 -4255 1 c-2340 1 -4276 -2
-4302 -6z m2390 -3562 l-3 -563 -657 -3 -658 -2 0 565 0 565 660 0 660 0 -2
-562z m3927 -973 c562 -83 940 -326 1145 -734 75 -151 140 -399 177 -681 16
-123 18 -276 20 -1697 l4 -1563 -660 0 -660 0 -4 1432 c-3 1283 -5 1443 -20
1527 -64 360 -177 555 -378 651 -124 59 -203 73 -399 73 -185 0 -270 -14 -410
-67 -103 -38 -186 -92 -260 -168 -143 -146 -207 -347 -230 -718 -6 -94 -10
-715 -10 -1448 l0 -1282 -652 2 -653 3 0 2260 0 2260 568 3 567 2 0 -305 c0
-253 2 -305 14 -305 7 0 41 38 74 84 255 350 765 621 1292 686 101 12 341 5
475 -15z m-3927 -2512 l-3 -2158 -657 -3 -658 -2 0 2160 0 2160 660 0 660 0
-2 -2157z"/>
</g>
</svg>
